<svg xmlns="http://www.w3.org/2000/svg" version="1.1" xmlns:xlink="http://www.w3.org/1999/xlink" xmlns:svgjs="http://svgjs.com/svgjs" width="330mm" height="330mm"><svg width="330mm" height="330mm" viewBox="0 0 330 330" version="1.1" id="SvgjsSvg1006" inkscape:version="1.1.1 (3bf5ae0d25, 2021-09-20)" sodipodi:docname="ousia - icon.svg" xmlns:inkscape="http://www.inkscape.org/namespaces/inkscape" xmlns:sodipodi="http://sodipodi.sourceforge.net/DTD/sodipodi-0.dtd" xmlns="http://www.w3.org/2000/svg" xmlns:svg="http://www.w3.org/2000/svg">
  <sodipodi:namedview id="SvgjsSodipodi:namedview1005" pagecolor="#ffffff" bordercolor="#666666" borderopacity="1.0" inkscape:pageshadow="2" inkscape:pageopacity="0.0" inkscape:pagecheckerboard="0" inkscape:document-units="mm" showgrid="false" fit-margin-top="0" fit-margin-left="0" fit-margin-right="0" fit-margin-bottom="0" inkscape:zoom="0.38885732" inkscape:cx="-1065.9437" inkscape:cy="831.92467" inkscape:window-width="3440" inkscape:window-height="1377" inkscape:window-x="1432" inkscape:window-y="690" inkscape:window-maximized="1" inkscape:current-layer="layer1"></sodipodi:namedview>
  <defs id="SvgjsDefs1004"></defs>
  <g inkscape:label="Ebene 1" inkscape:groupmode="layer" id="SvgjsG1003" transform="translate(-67.002564,64.239383)">
    <g id="SvgjsG1002" featurekey="symbolFeature-0" transform="matrix(4.4534143,0,0,4.4534143,9.3329717,-121.9101)" fill="#000000">
      <g id="SvgjsG1001">
        <path d="m 50,14.491 c -5.568,0 -10.746,1.538 -15.09,4.222 -1.058,0.643 -1.42,2.181 -0.779,3.244 0.641,1.063 2.199,1.454 3.229,0.811 3.619,-2.237 7.935,-3.551 12.64,-3.551 12.751,0 22.773,9.506 22.773,21.193 v 5.173 c 0,1.258 1.113,2.404 2.367,2.404 1.252,0 2.365,-1.146 2.365,-2.404 V 40.41 C 77.506,26.011 65.09,14.491 50,14.491 Z M 28.118,24.668 c -3.675,4.222 -5.623,9.814 -5.623,15.741 v 27.009 c -0.028,1.258 1.113,2.404 2.366,2.404 1.225,0 2.366,-1.146 2.339,-2.404 V 40.41 c 0,-4.809 1.697,-9.199 4.565,-12.75 0.612,-0.699 0.835,-1.817 0.334,-2.572 -1.169,-1.734 -2.784,-1.79 -3.981,-0.42 z M 50,24.221 c -10.469,0 -19.127,7.997 -19.127,18.062 v 4.613 c -0.027,1.258 1.114,2.404 2.339,2.404 1.253,0 2.395,-1.146 2.366,-2.404 v -4.613 c 0,-7.326 6.32,-13.337 14.422,-13.337 8.101,0 14.392,6.011 14.392,13.337 v 33.021 c -0.027,1.229 1.115,2.376 2.34,2.376 1.252,0 2.395,-1.146 2.365,-2.376 V 42.283 C 69.098,32.218 60.469,24.221 50,24.221 Z m 0,9.423 c -5.818,0 -10.774,4.474 -10.774,10.205 v 37.689 c 0,1.23 1.114,2.405 2.366,2.405 1.253,0 2.367,-1.175 2.367,-2.405 V 43.849 c 0,-2.992 2.561,-5.48 6.041,-5.48 3.453,0 6.013,2.488 6.013,5.48 v 10.094 c -0.027,1.23 1.113,2.376 2.367,2.376 1.225,0 2.365,-1.146 2.338,-2.376 V 43.849 C 60.719,38.117 55.818,33.644 50,33.644 Z m -0.056,8.416 c -1.225,0.028 -2.311,1.174 -2.311,2.404 v 22.284 c -0.027,1.258 1.114,2.404 2.367,2.404 1.253,0 2.367,-1.146 2.337,-2.404 V 44.464 c 0.03,-1.258 -1.14,-2.433 -2.393,-2.404 z m 25.14,8.695 c -1.225,0.028 -2.311,1.146 -2.311,2.377 v 14.287 c 0,1.258 1.113,2.404 2.367,2.404 1.252,0 2.365,-1.146 2.365,-2.404 V 53.132 c 0.001,-1.259 -1.167,-2.405 -2.421,-2.377 z M 33.212,52.32 c -1.253,0.028 -2.366,1.146 -2.339,2.405 v 20.578 c -0.027,1.229 1.114,2.376 2.339,2.376 1.253,0 2.395,-1.146 2.366,-2.376 V 54.726 c 0.029,-1.259 -1.14,-2.406 -2.366,-2.406 z m 24.89,7.102 c -1.141,0.141 -2.115,1.23 -2.088,2.405 v 19.711 c -0.027,1.23 1.113,2.405 2.367,2.405 1.225,0 2.365,-1.175 2.338,-2.405 V 61.827 c 0.027,-1.259 -1.113,-2.405 -2.367,-2.405 -0.082,0 -0.166,0 -0.25,0 z m -8.408,13.029 c -1.141,0.141 -2.088,1.259 -2.061,2.433 v 8.221 c -0.027,1.258 1.114,2.404 2.367,2.404 1.253,0 2.367,-1.146 2.337,-2.404 v -8.221 c 0.029,-1.286 -1.113,-2.46 -2.394,-2.433 -0.082,0 -0.165,0 -0.249,0 z" id="SvgjsPath1000"></path>
      </g>
    </g>
  </g>
</svg><style>@media (prefers-color-scheme: light) { :root { filter: none; } }
</style></svg>