<?xml version="1.0" standalone="no"?>
<!DOCTYPE svg PUBLIC "-//W3C//DTD SVG 20010904//EN"
 "http://www.w3.org/TR/2001/REC-SVG-20010904/DTD/svg10.dtd">
<svg version="1.0" xmlns="http://www.w3.org/2000/svg"
 width="700.000000pt" height="700.000000pt" viewBox="0 0 700.000000 700.000000"
 preserveAspectRatio="xMidYMid meet">
<metadata>
Created by potrace 1.14, written by Peter Selinger 2001-2017
</metadata>
<g transform="translate(0.000000,700.000000) scale(0.100000,-0.100000)"
fill="#000000" stroke="none">
<path d="M3417 6854 c-1 -1 -51 -4 -112 -8 -60 -3 -121 -8 -135 -10 -14 -3
-47 -7 -75 -11 -27 -3 -57 -8 -65 -10 -8 -2 -31 -6 -50 -9 -19 -3 -89 -19
-155 -35 -228 -56 -455 -147 -664 -266 -116 -66 -134 -81 -160 -132 -82 -155
19 -325 194 -326 53 -1 69 4 145 47 266 149 538 247 780 282 19 3 40 7 46 9
29 9 212 20 344 19 188 0 321 -14 480 -49 14 -3 37 -7 52 -10 15 -3 37 -9 50
-14 13 -5 25 -9 28 -9 43 -1 271 -87 396 -150 127 -63 129 -64 244 -141 398
-267 685 -652 815 -1096 54 -185 66 -280 71 -565 8 -492 9 -512 27 -547 38
-72 125 -132 192 -133 78 0 161 48 203 119 l27 46 0 340 c0 310 -6 468 -19
535 -3 14 -8 41 -10 60 -46 346 -246 785 -499 1100 -86 106 -297 314 -398 392
-200 153 -380 260 -584 347 -55 23 -109 46 -120 51 -69 30 -334 105 -440 124
-126 23 -215 35 -320 42 -76 5 -284 11 -288 8z"/>
<path d="M1580 5980 c-75 -14 -125 -54 -218 -174 -226 -293 -369 -635 -435
-1041 -20 -127 -21 -166 -25 -1520 -2 -1004 0 -1404 8 -1441 7 -33 23 -66 45
-92 108 -126 294 -103 367 45 l23 48 1 1365 c0 751 4 1385 7 1410 4 25 9 68
13 95 11 101 84 378 105 400 5 5 9 16 9 25 0 26 108 237 168 330 31 47 78 114
105 148 60 78 80 123 80 182 0 66 -41 133 -115 189 -29 21 -101 38 -138 31z"/>
<path d="M3417 5935 c-1 -1 -40 -5 -87 -9 -47 -3 -121 -13 -164 -21 -44 -8
-93 -18 -109 -21 -63 -11 -274 -87 -376 -136 -258 -123 -485 -308 -649 -528
-95 -127 -107 -147 -175 -286 -72 -145 -127 -326 -153 -504 -3 -25 -8 -187 -9
-359 -2 -293 -1 -318 17 -360 79 -186 328 -188 405 -4 19 44 20 71 21 318 0
246 4 335 17 405 25 134 86 301 149 405 145 242 379 440 645 547 65 26 231 78
246 76 3 0 36 6 73 13 75 15 334 18 427 6 216 -29 425 -108 608 -230 105 -70
262 -221 329 -317 96 -136 174 -314 204 -465 2 -11 7 -36 11 -55 4 -19 8 -777
10 -1685 3 -1825 -2 -1695 68 -1767 19 -20 52 -44 72 -53 103 -49 241 9 291
123 14 33 16 198 16 1667 -1 897 -4 1657 -7 1690 -14 117 -22 163 -48 260
-106 409 -383 777 -761 1011 -208 129 -429 210 -699 258 -75 13 -361 29 -372
21z"/>
<path d="M3438 5045 c-2 -2 -34 -6 -72 -10 -156 -15 -362 -97 -493 -197 -196
-147 -335 -366 -378 -593 -4 -22 -9 -878 -10 -1902 l-2 -1863 22 -47 c57 -121
184 -170 294 -114 50 26 104 90 119 140 9 28 12 505 12 1854 0 1297 3 1831 11
1869 50 237 273 406 543 413 234 6 435 -106 533 -298 49 -97 52 -141 52 -697
1 -573 -1 -561 67 -626 50 -49 92 -67 155 -68 42 0 66 6 100 26 53 31 70 49
99 106 22 42 22 45 22 590 0 582 -2 613 -51 755 -97 282 -330 507 -627 606
-88 30 -109 35 -188 46 -42 6 -204 14 -208 10z"/>
<path d="M3426 4235 c-53 -19 -113 -79 -134 -136 -16 -43 -17 -124 -16 -1140
l1 -1094 21 -41 c38 -74 128 -134 202 -134 75 0 166 61 200 133 19 41 19 74
20 1137 0 756 -3 1107 -11 1134 -14 51 -91 128 -145 144 -53 15 -89 15 -138
-3z"/>
<path d="M5821 3420 c-55 -13 -113 -63 -143 -121 l-28 -54 0 -715 0 -715 24
-50 c42 -92 123 -140 220 -132 72 6 127 43 171 112 l30 48 0 736 c0 820 5 758
-70 833 -37 36 -109 69 -149 67 -12 -1 -36 -5 -55 -9z"/>
<path d="M1823 3255 c-56 -28 -100 -78 -118 -134 -10 -27 -12 -282 -11 -1051
2 -1124 -2 -1050 68 -1116 70 -66 152 -83 236 -49 49 20 114 89 129 138 7 22
10 369 9 1053 -1 969 -2 1021 -19 1053 -42 75 -127 130 -203 131 -23 0 -61
-11 -91 -25z"/>
<path d="M4205 2591 c-53 -25 -93 -65 -116 -115 -18 -39 -19 -86 -19 -1021 0
-961 1 -981 21 -1025 63 -143 237 -178 348 -70 78 76 73 -1 73 1091 1 954 0
976 -19 1020 -51 112 -186 168 -288 120z"/>
<path d="M3415 1362 c-53 -25 -93 -67 -118 -122 -20 -43 -21 -63 -21 -475 0
-313 4 -440 12 -466 16 -47 80 -114 129 -134 110 -48 244 12 288 129 14 36 16
101 13 486 -3 420 -4 447 -22 475 -70 108 -185 151 -281 107z"/>
</g>
</svg>
