<?xml version="1.0" standalone="no"?>
<!DOCTYPE svg PUBLIC "-//W3C//DTD SVG 20010904//EN"
 "http://www.w3.org/TR/2001/REC-SVG-20010904/DTD/svg10.dtd">
<svg version="1.0" xmlns="http://www.w3.org/2000/svg"
 width="700.000000pt" height="700.000000pt" viewBox="0 0 700.000000 700.000000"
 preserveAspectRatio="xMidYMid meet">
<metadata>
Created by potrace 1.14, written by Peter Selinger 2001-2017
</metadata>
<g transform="translate(0.000000,700.000000) scale(0.100000,-0.100000)"
fill="#000000" stroke="none">
<path d="M3418 6605 c-2 -2 -19 -6 -38 -9 -141 -22 -303 -131 -385 -260 -117
-185 -120 -429 -6 -617 69 -114 185 -209 303 -248 l63 -21 2 -833 2 -833 -29
-11 c-31 -11 -37 -7 -88 62 -4 6 -33 45 -64 87 -32 43 -58 80 -58 83 0 4 11
21 24 38 91 122 132 317 96 467 -48 205 -188 361 -389 432 -65 23 -231 33
-301 17 -284 -62 -479 -314 -465 -600 5 -98 17 -144 62 -238 118 -247 442
-384 696 -295 22 8 41 13 42 12 46 -58 175 -239 175 -245 -1 -4 -10 -19 -20
-32 -16 -18 -26 -22 -47 -16 -32 8 -1189 344 -1308 380 -44 13 -124 36 -177
52 l-97 28 0 66 c1 306 -255 564 -571 573 -202 6 -393 -96 -504 -269 -67 -105
-90 -185 -90 -315 -1 -84 4 -120 23 -178 57 -175 195 -314 373 -378 109 -38
259 -38 373 1 105 36 248 141 285 209 9 18 19 25 29 20 9 -4 97 -30 196 -59
99 -30 290 -86 425 -125 135 -40 259 -76 275 -80 29 -8 195 -57 535 -157 l165
-49 1 -50 c1 -45 -2 -50 -21 -52 -13 -1 -72 -19 -132 -40 l-110 -39 -47 59
c-85 105 -187 173 -311 204 -139 34 -271 23 -395 -34 -73 -34 -114 -64 -180
-132 -213 -219 -210 -589 7 -806 124 -125 272 -184 446 -177 208 7 405 137
497 327 44 91 49 111 57 213 4 54 9 73 22 76 64 20 228 81 237 88 8 6 20 -2
37 -25 25 -33 26 -34 8 -47 -11 -8 -121 -158 -246 -334 -124 -176 -232 -327
-238 -335 -35 -43 -435 -610 -439 -622 -2 -4 -25 0 -53 8 -57 19 -245 27 -281
13 -14 -5 -37 -11 -52 -14 -101 -18 -266 -142 -331 -249 -106 -177 -119 -370
-35 -554 192 -423 770 -463 1024 -71 59 91 90 197 91 309 1 119 -40 250 -107
343 -20 27 -32 52 -27 56 8 6 816 1134 891 1246 19 28 35 51 36 53 2 1 19 -5
39 -13 l36 -15 0 -145 c0 -129 -2 -146 -17 -151 -9 -3 -50 -21 -91 -41 -132
-65 -240 -189 -291 -333 -31 -89 -36 -245 -10 -335 79 -277 321 -450 604 -432
201 13 363 112 466 286 193 327 23 749 -345 859 l-30 9 0 138 0 138 49 14 49
15 26 -33 c23 -30 224 -300 773 -1042 92 -125 168 -229 168 -231 0 -2 -20 -34
-45 -71 -40 -62 -72 -139 -90 -219 -6 -30 -7 -153 -1 -196 25 -175 154 -349
318 -429 46 -22 97 -43 113 -46 17 -3 41 -7 55 -10 90 -19 259 4 345 48 217
109 349 334 332 568 -19 261 -210 482 -462 534 -94 19 -222 13 -312 -16 -6 -2
-51 50 -100 116 -610 820 -883 1190 -882 1200 0 6 8 20 19 33 l19 22 121 -47
122 -48 4 -67 c17 -289 250 -524 540 -545 112 -8 202 10 301 58 356 175 439
646 163 929 -72 74 -129 111 -229 148 -83 31 -245 39 -331 16 -127 -34 -254
-117 -324 -213 l-37 -50 -52 18 c-88 31 -187 73 -188 80 -8 59 -3 81 21 90 14
6 180 58 370 117 190 58 431 133 535 166 105 33 197 61 205 63 23 5 153 45
170 52 8 4 17 7 20 7 3 1 63 19 133 41 l128 39 26 -35 c59 -77 145 -149 226
-189 103 -49 127 -54 262 -55 129 0 193 17 299 79 166 99 274 285 280 484 13
382 -343 671 -719 585 -245 -56 -441 -289 -448 -532 l-2 -61 -100 -30 c-55
-17 -140 -44 -190 -60 -109 -34 -210 -66 -290 -90 -33 -10 -193 -59 -355 -110
-162 -50 -369 -114 -460 -142 -91 -28 -173 -54 -182 -59 -13 -7 -23 0 -47 30
l-31 39 25 36 c14 20 25 39 25 41 0 2 19 32 43 68 23 35 47 72 52 81 9 15 14
15 55 -1 67 -24 228 -26 312 -4 266 72 441 302 439 579 -2 306 -257 563 -567
571 -485 13 -774 -530 -492 -925 l30 -41 -79 -122 c-76 -118 -79 -121 -108
-115 -16 4 -32 8 -35 11 -2 2 -5 365 -7 806 -1 441 -5 814 -7 829 -5 25 -1 28
65 53 131 51 251 161 314 290 184 382 -83 826 -507 840 -48 1 -88 1 -90 0z
m169 -301 c34 -11 72 -33 102 -60 132 -119 130 -339 -4 -448 -60 -50 -108 -68
-185 -72 -117 -5 -217 52 -275 157 -27 48 -30 63 -30 139 0 103 24 160 96 224
80 71 189 94 296 60z m859 -1639 c105 -51 167 -151 168 -270 0 -90 -28 -154
-95 -217 -133 -125 -340 -103 -448 47 -125 176 -22 426 194 468 48 9 131 -4
181 -28z m-1691 6 c94 -26 184 -123 207 -223 37 -168 -91 -345 -261 -361 -128
-11 -242 51 -304 168 -32 59 -31 202 0 262 72 134 212 194 358 154z m-1803
-339 c56 -25 119 -87 148 -148 33 -69 33 -179 -1 -249 -32 -68 -98 -129 -165
-154 -197 -74 -404 67 -406 278 -1 132 87 248 222 292 39 13 155 2 202 -19z
m5348 1 c57 -21 135 -94 163 -152 31 -66 31 -188 -1 -252 -75 -153 -244 -215
-395 -146 -219 100 -237 401 -30 527 80 49 170 57 263 23z m-2693 -832 c113
-33 203 -158 203 -281 0 -200 -181 -342 -374 -294 -86 22 -172 98 -207 184
-23 57 -18 176 9 231 68 138 221 204 369 160z m-1327 -449 c147 -64 216 -248
147 -392 -14 -30 -34 -64 -44 -75 -115 -129 -314 -137 -437 -18 -161 156 -96
429 119 500 53 17 159 10 215 -15z m2685 -6 c60 -28 119 -85 148 -146 16 -35
21 -64 21 -125 0 -94 -22 -152 -81 -210 -151 -147 -392 -105 -485 84 -33 66
-33 187 0 253 74 150 247 213 397 144z m-1390 -961 c47 -8 100 -39 145 -84
142 -142 99 -386 -84 -476 -228 -112 -483 97 -419 344 26 102 97 175 205 212
46 15 87 16 153 4z m-1571 -823 c27 -9 67 -33 90 -53 130 -115 134 -324 9
-440 -65 -59 -123 -83 -208 -82 -81 0 -129 18 -191 68 -167 137 -133 398 64
499 70 36 148 38 236 8z m3273 -21 c178 -90 221 -325 85 -470 -88 -93 -212
-122 -326 -76 -196 79 -254 322 -115 479 84 96 242 126 356 67z"/>
</g>
</svg>
